<svg width="99" height="68" viewBox="0 0 99 68" fill="none" xmlns="http://www.w3.org/2000/svg">
<g clip-path="url(#clip0_2_416)">
<path d="M40.3506 37.0051C39.475 35.5357 38.059 35.174 36.7113 35.01C34.8335 34.8069 32.9136 34.8027 31.062 34.9963C22.5555 36.1116 15.7353 40.2985 10.4854 47.0067C9.15675 48.717 8.05097 50.6458 6.72567 52.6868C5.44865 50.8022 5.48992 48.3541 4.27774 46.3366C3.62365 47.1145 3.7862 47.9068 3.90327 48.5673C4.39426 51.2751 4.92959 54.0045 5.53091 56.7113C5.83101 58.0096 6.36439 58.3795 7.55186 57.9716C10.0371 57.1547 12.03 55.6587 13.4645 53.5064C13.5077 53.4178 13.4395 53.22 13.3702 52.9119C11.2251 52.4687 10.4798 55.1218 8.40638 55.2072C9.1882 51.804 11.1471 49.1396 13.3289 46.6937C15.6199 44.1365 18.1121 41.8421 21.1184 40.1824C24.0587 38.5454 27.2048 37.6121 30.5078 36.9199C33.7881 36.1618 37.033 36.264 40.3506 37.0051Z" fill="black"/>
</g>
<path d="M14.6718 5.05708C14.2648 4.56784 14.2157 3.88698 13.9674 3.14899C13.8663 2.84877 13.745 2.51024 13.613 2.15852C13.5496 1.95879 13.3987 1.32757 13.2549 1.20385C12.7887 0.817011 11.988 1.43268 11.9378 1.91005C11.909 2.18454 12.0711 2.4791 12.1842 2.78057C12.2879 3.05693 12.4104 3.38352 12.494 3.62156C12.6775 4.17176 13.0079 4.7012 13.1519 5.28344C13.2317 5.55728 13.4095 5.81729 13.4893 6.09113C13.6169 6.59925 13.5573 7.0515 13.4525 7.70412C13.3646 8.31026 12.7946 9.831 13.5125 10.003C13.9145 10.0814 14.2656 9.84082 14.3705 9.64672C14.4213 9.50727 14.5023 9.0814 14.5512 8.84522C14.6454 8.40867 14.732 8.04373 14.7903 7.60341C14.8374 7.27051 14.9164 6.74791 15 6.52743C15.0703 6.31763 15.248 6.11912 15.4282 5.89674C15.5701 5.69447 15.7108 5.50413 15.8634 5.31504C16.6264 4.36962 17.0208 4.06116 17.8466 3.2068C18.0231 3.02022 18.6499 2.56726 18.565 2.11189C18.4839 1.62072 17.869 1.61642 17.6618 1.7515C17.5707 1.81432 17.3446 2.12841 17.2341 2.26159C17.1079 2.42932 16.9458 2.59328 16.8246 2.71327C16.3204 3.26357 15.9084 3.73911 15.428 4.29192C15.195 4.55702 15.0116 4.92386 14.6718 5.05708ZM19.0285 4.45316C18.6403 4.4727 18.4356 4.5839 18.1266 4.76861C17.6355 5.07898 17.562 5.20398 17.2423 5.60477C16.6357 6.3253 16.3602 7.68395 16.9011 8.62163C17.2096 9.01603 17.8616 9.47068 18.464 9.59432C19.1832 9.75438 19.7535 9.60919 20.2384 9.3585C21.0862 8.86844 21.7318 8.00721 21.6996 7.0506C21.8124 5.518 20.7916 4.32475 19.0285 4.45316ZM17.904 7.4601C17.8637 6.69569 18.5532 5.64602 19.2102 5.59441C20.0619 5.52707 20.6839 6.4974 20.3637 7.4773C20.1999 8.00305 19.639 8.40261 19.2578 8.47114C18.4488 8.59123 17.938 8.05491 17.904 7.4601ZM23.7609 5.55387C22.7277 5.397 22.5394 6.2701 22.3951 7.18402C22.3455 7.5408 22.247 8.36301 22.2521 8.77379C22.2667 9.66821 22.8063 10.1593 23.4344 10.3822C25.1587 10.853 25.928 10.0772 26.4516 8.76873C26.6463 8.29448 26.7743 7.76496 26.8364 7.28885C26.9086 6.71726 26.9901 5.71227 26.6653 5.47301C26.4643 5.31916 25.867 5.37704 25.7338 5.72503C25.597 6.10883 25.5789 7.08428 25.476 7.60437C25.3473 8.25448 24.9097 9.31857 24.4248 9.34C23.0078 9.50479 23.6362 7.54373 23.8308 6.61096C23.9174 6.24602 24.0618 5.79062 23.7609 5.55387ZM32.4048 3.22866C31.8911 3.29532 31.5583 4.16531 32.1173 4.35679C32.5715 4.51312 33.2171 4.1104 33.1517 3.58468C33.1115 3.2788 32.7729 3.17082 32.4048 3.22866ZM32.0454 6.07468C31.5686 6.13317 31.5015 6.65702 31.403 7.02071C31.3615 7.18528 31.2291 7.8712 31.1833 8.19217C31.0773 9.08599 30.8971 9.76688 30.685 10.6375C30.3768 11.8479 30.0762 13.4452 29.1742 13.7607C28.8991 13.8524 27.9777 13.7797 27.8999 14.2904C27.8233 14.7891 28.4785 15.0993 29.0042 15.0339C29.187 15.0169 29.4835 14.9515 29.6725 14.8749C29.8867 14.7888 30.1059 14.6549 30.2352 14.572C30.5204 14.3848 31.0297 13.7868 31.1948 13.4783C31.3468 13.1806 31.4133 12.7773 31.5514 12.3816C31.6594 12.043 31.746 11.6781 31.8314 11.3251C31.9927 10.5939 32.2055 9.832 32.3285 9.12096C32.4233 8.56382 32.5143 8.04247 32.6172 7.52238C32.6737 7.2146 32.8513 6.78683 32.7445 6.42568C32.6741 6.17696 32.3644 6.02375 32.0454 6.07468ZM34.8328 6.71756C33.7995 6.5607 33.6112 7.4338 33.4669 8.34772C33.4173 8.70449 33.3188 9.5267 33.3239 9.93748C33.3385 10.8319 33.8781 11.323 34.5063 11.5459C36.2305 12.0167 36.9998 11.2409 37.5235 9.93243C37.7181 9.45818 37.8461 8.92866 37.9083 8.45254C37.9804 7.88095 38.0619 6.87597 37.7371 6.63671C37.5361 6.48285 36.9388 6.54073 36.8057 6.88873C36.6688 7.27252 36.6507 8.24798 36.5478 8.76807C36.4192 9.41818 35.9815 10.4823 35.4966 10.5037C34.0796 10.6685 34.7081 8.70743 34.9026 7.77466C34.9893 7.40971 35.1337 6.95431 34.8328 6.71756ZM40.8594 6.74769C40.2075 6.75156 39.5894 6.89172 39.1046 7.37167C38.9149 7.56893 38.8001 8.08777 38.7913 8.40057C38.7745 8.90557 39.2343 9.35208 39.6087 9.69309C39.9178 9.96689 40.6854 10.4699 40.5599 10.9755C39.741 11.8789 39.3734 10.8991 38.7001 11.1058C38.5757 11.141 38.4187 11.2573 38.3835 11.3622C38.2121 11.9595 38.3629 12.1322 39.3535 12.4656C39.7731 12.6062 40.4395 12.5797 40.7975 12.3881C41.2956 12.1267 41.7301 11.6656 41.823 11.0118C41.9397 10.1311 41.2405 9.55088 40.7913 9.11755C40.6927 9.02272 40.1047 8.64721 40.1637 8.31556C40.2277 7.93617 40.6209 7.8689 41.2585 8.1169C41.4859 8.2494 41.991 8.7248 42.2497 8.55893C42.3766 8.49987 42.6642 8.28878 42.661 7.97473C42.6572 7.55201 42.2231 7.20474 41.7658 6.96361C41.5372 6.84305 40.9204 6.74202 40.8594 6.74769ZM46.4616 7.46923C46.4157 6.6439 46.6643 6.34425 46.8144 5.72052C46.9657 5.31411 47.0699 5.01134 46.4694 4.98443C45.5216 4.93307 45.5343 5.73077 45.3541 6.41167C45.2775 6.68114 45.1426 7.39092 44.9247 7.51281C44.7199 7.62402 43.8977 7.52553 43.6408 7.55886C43.3921 7.62925 43.1641 7.84661 43.1045 8.0696C43.0235 8.26621 43.0682 8.64495 43.305 8.80257C43.6335 9.00603 44.5078 8.72387 44.7377 9.06176C44.6172 9.74893 44.5476 10.2966 44.4283 10.7426C44.3938 10.9562 44.1553 11.8481 44.0969 12.0592C44.053 12.2476 43.6825 13.2464 43.7341 13.4449C43.8001 13.6207 44.1707 13.7683 44.437 13.7601C45.0425 13.7392 45.2533 12.4221 45.3795 12.0251C45.4404 11.7901 45.6563 10.8838 45.7053 10.6476C45.7712 10.3649 45.9965 9.02513 46.2433 8.85801C46.4782 8.68964 47.448 8.87604 47.838 8.72397C48.1024 8.61904 48.282 8.288 48.2443 7.95825C48.1839 7.38479 46.7192 7.77382 46.4616 7.46923ZM53.432 10.4461C53.3584 9.6541 53.9328 8.20622 52.9593 8.28489C52.399 8.3346 52.3458 9.18569 52.2504 9.86344C52.1255 10.707 51.9297 11.4225 51.7583 12.2491C51.5958 12.9921 51.371 13.7528 52.2491 13.6641C52.5776 13.6383 53.0806 12.6414 53.3211 12.3047C53.7418 11.7456 53.657 11.7488 54.3365 11.0239C54.6103 10.7148 54.8967 10.2864 55.2717 10.2775C55.2868 10.8221 55.192 11.15 55.0602 11.7153C54.9152 12.2913 54.7891 12.9175 54.7634 13.5061C54.9927 13.9646 55.8243 13.8589 56.0221 13.4694C56.0837 13.3432 56.066 13.0517 56.0886 12.8369C56.1921 11.967 56.6335 10.6378 56.6484 9.80684C56.6527 9.42118 56.5082 8.95955 56.3738 8.86095C55.941 8.50174 55.4417 8.77505 55.1075 8.96919C54.6692 9.23683 54.2949 9.58361 53.9909 9.94984C53.8383 10.1389 53.6681 10.2658 53.432 10.4461ZM58.8113 12.6405C59.1078 12.5751 59.6121 12.4833 59.9934 12.4148C60.5587 12.3173 60.8507 12.1791 61.4078 12.0446C61.7413 11.9711 62.0107 11.5891 62.0207 11.2644C62.0433 11.0496 61.9264 10.5546 61.8579 10.4026C61.4714 9.14335 60.5292 8.6944 59.317 8.97724C58.8246 9.07028 58.2386 9.47927 57.8957 9.98621C57.4587 10.4712 57.2484 11.2092 57.3672 12.2594C57.5866 13.2719 57.8605 13.6506 58.7858 14.146C59.3606 14.5322 60.5464 14.5 61.2015 14.1224C61.4219 13.9767 61.5205 13.613 61.2868 13.3109C60.8621 12.9887 60.4603 13.5981 59.6782 13.3469C59.1644 13.1843 58.8654 13.0443 58.8113 12.6405ZM59.0484 10.3849C59.8642 9.85525 60.5753 9.97825 60.7902 10.9179C60.7092 11.1145 60.3418 11.281 60.061 11.3118C59.6346 11.3514 58.8815 11.5136 58.6704 11.4552C58.5975 11.2304 58.7118 10.6029 59.0484 10.3849ZM64.1608 13.2027C64.4572 13.1373 64.9616 13.0455 65.3428 12.977C65.9081 12.8796 66.2002 12.7413 66.7573 12.6068C67.0908 12.5333 67.3602 12.1514 67.3702 11.8266C67.3928 11.6118 67.2758 11.1169 67.2074 10.9649C66.8209 9.7056 65.8786 9.25665 64.6664 9.53949C64.174 9.63253 63.5881 10.0415 63.2452 10.5485C62.8081 11.0334 62.5978 11.7715 62.7167 12.8217C62.936 13.8341 63.21 14.2128 64.1352 14.7083C64.71 15.0945 65.8959 15.0623 66.5509 14.6847C66.7714 14.5389 66.8699 14.1752 66.6362 13.8731C66.2116 13.551 65.8097 14.1603 65.0277 13.9092C64.5138 13.7466 64.2148 13.6066 64.1608 13.2027ZM64.3978 10.9471C65.2137 10.4175 65.9247 10.5405 66.1397 11.4801C66.0587 11.6767 65.6912 11.8432 65.4105 11.8741C64.984 11.9137 64.2309 12.0759 64.0199 12.0175C63.947 11.7926 64.0612 11.1651 64.3978 10.9471ZM71.1858 16.5353C71.7342 16.7136 72.0947 16.4981 72.219 16.0044C72.4481 15.0873 72.5038 13.7538 72.6663 12.5522C72.8175 11.6873 73.034 10.6603 73.2022 9.74887C73.3466 9.06421 73.7471 7.77903 73.1485 7.61959C72.9638 7.53985 72.5625 7.57006 72.4626 7.71642C72.1242 8.29622 72.2205 10.0197 71.6791 10.349C70.9154 10.2687 70.237 10.2939 69.5945 10.5522C69.0129 10.8047 68.5846 11.2062 68.2537 11.7144C67.983 12.1082 67.779 12.7866 67.8808 13.4248C67.9852 14.039 68.5562 14.6903 69.0512 15.0319C69.5927 15.3905 70.229 15.4212 70.8703 15.6334C70.9992 15.9003 70.9251 16.3751 71.1858 16.5353ZM71.331 13.0876C71.2563 13.4538 71.1879 14.2188 71.041 14.4688C70.4663 14.5411 69.6365 14.0557 69.3381 13.5659C68.8455 12.7419 69.5532 11.6338 70.4451 11.643C70.9991 11.653 71.3006 11.5399 71.4558 11.7855C71.513 12.0449 71.4069 12.7094 71.331 13.0876ZM79.2476 10.7824C78.8594 10.802 78.6547 10.9132 78.3457 11.0979C77.8545 11.4083 77.7811 11.5333 77.4614 11.934C76.8548 12.6546 76.5793 14.0132 77.1202 14.9509C77.4287 15.3453 78.0807 15.8 78.6831 15.9236C79.4023 16.0837 79.9726 15.9385 80.4575 15.6878C81.3053 15.1977 81.9509 14.3365 81.9187 13.3799C82.0315 11.8473 81.0107 10.654 79.2476 10.7824ZM78.1231 13.7894C78.0828 13.025 78.7723 11.9753 79.4293 11.9237C80.281 11.8563 80.903 12.8267 80.5828 13.8066C80.4189 14.3323 79.8581 14.7319 79.4768 14.8004C78.6679 14.9205 78.1571 14.3842 78.1231 13.7894ZM84.1417 13.6739C84.0681 12.8818 84.6426 11.4339 83.669 11.5126C83.1088 11.5623 83.0555 12.4134 82.9602 13.0912C82.8353 13.9347 82.6394 14.6502 82.4681 15.4768C82.3055 16.2199 82.0808 16.9805 82.9589 16.8918C83.2874 16.866 83.7903 15.8692 84.0308 15.5325C84.4516 14.9734 84.3668 14.9765 85.0463 14.2516C85.3201 13.9425 85.6064 13.5141 85.9814 13.5052C85.9966 14.0498 85.9018 14.3777 85.77 14.943C85.625 15.519 85.4988 16.1453 85.4732 16.7338C85.7025 17.1923 86.5341 17.0866 86.7319 16.6972C86.7934 16.5709 86.7758 16.2795 86.7984 16.0647C86.9019 15.1947 87.3432 13.8656 87.3582 13.0346C87.3625 12.6489 87.218 12.1873 87.0835 12.0887C86.6507 11.7295 86.1514 12.0028 85.8173 12.1969C85.3789 12.4646 85.0046 12.8113 84.7007 13.1776C84.5481 13.3667 84.3779 13.4936 84.1417 13.6739ZM89.5211 15.8682C89.8175 15.8028 90.3219 15.711 90.7031 15.6425C91.2684 15.5451 91.5605 15.4068 92.1176 15.2723C92.4511 15.1988 92.7205 14.8168 92.7305 14.4921C92.7531 14.2773 92.6362 13.7824 92.5677 13.6304C92.1812 12.3711 91.239 11.9221 90.0267 12.205C89.5343 12.298 88.9484 12.707 88.6055 13.2139C88.1684 13.6989 87.9581 14.437 88.077 15.4871C88.2964 16.4996 88.5703 16.8783 89.4955 17.3738C90.0703 17.76 91.2562 17.7277 91.9113 17.3501C92.1317 17.2044 92.2303 16.8407 91.9965 16.5386C91.5719 16.2165 91.17 16.8258 90.388 16.5747C89.8741 16.4121 89.5751 16.272 89.5211 15.8682ZM89.7581 13.6126C90.574 13.083 91.285 13.206 91.5 14.1456C91.419 14.3422 91.0516 14.5087 90.7708 14.5395C90.3443 14.5792 89.5912 14.7413 89.3802 14.683C89.3073 14.4581 89.4215 13.8306 89.7581 13.6126ZM35.4641 18.3794C35.4181 17.5541 35.6668 17.2545 35.8168 16.6307C35.9681 16.2243 36.0723 15.9216 35.4719 15.8946C34.524 15.8433 34.5367 16.641 34.3566 17.3219C34.28 17.5913 34.1451 18.3011 33.9271 18.423C33.7224 18.5342 32.9002 18.4357 32.6433 18.4691C32.3945 18.5395 32.1666 18.7568 32.1069 18.9798C32.026 19.1764 32.0706 19.5552 32.3074 19.7128C32.636 19.9162 33.5102 19.6341 33.7402 19.972C33.6197 20.6591 33.5501 21.2069 33.4308 21.6528C33.3963 21.8664 33.1577 22.7583 33.0994 22.9694C33.0554 23.1578 32.685 24.1566 32.7365 24.3551C32.8025 24.5309 33.1731 24.6785 33.4394 24.6703C34.0449 24.6494 34.2558 23.3323 34.3819 22.9353C34.4428 22.7004 34.6588 21.794 34.7077 21.5578C34.7736 21.2751 34.9989 19.9353 35.2457 19.7682C35.4806 19.5999 36.4504 19.7862 36.8405 19.6342C37.1049 19.5292 37.2845 19.1982 37.2467 18.8685C37.1864 18.295 35.7217 18.684 35.4641 18.3794ZM38.5931 19.9752C39.0309 20.0575 39.5885 19.5731 40.4987 19.524C40.7694 19.5886 41.1099 20.2518 40.7689 20.6263C40.5529 20.8449 39.5341 20.6654 38.9305 20.7829C38.585 20.8552 38.141 21.0619 37.9563 21.2115C37.6662 21.4464 37.312 21.8315 37.3768 22.4778C37.3838 22.7561 37.5961 23.0318 37.7908 23.2453C38.257 23.8614 38.7715 24.1327 39.4467 24.4812C39.6408 24.586 40.1214 24.721 40.328 24.7065C40.6182 24.7008 40.9736 24.3038 41.0823 24.0739C41.3409 23.4495 41.5293 22.8057 41.7333 22.1273C41.8928 21.5287 42.1621 20.6882 42.1111 19.9106C42.0808 19.28 41.7353 18.6645 41.3219 18.4642C40.5876 18.2181 39.9765 18.4073 39.1845 18.7101C38.7851 18.8371 38.3077 19.0162 38.3172 19.4998C38.3305 19.7184 38.3751 19.8679 38.5931 19.9752ZM39.717 21.7947C39.945 21.8066 40.4048 21.7946 40.5462 21.9422C40.5022 22.3599 40.3786 23.1915 39.9986 23.2481C39.4346 23.1044 38.5778 22.7609 38.6386 22.0675C38.8427 21.8476 39.261 21.7709 39.717 21.7947ZM44.5164 19.4274C44.4861 19.026 44.5521 18.7434 44.6343 18.3056C44.7403 17.8703 44.9563 17.1931 44.8149 16.8163C44.6384 16.3151 43.9311 16.3856 43.6906 16.7223C43.4796 17.1224 43.3711 18.0401 43.2744 18.5005C43.0422 19.562 42.7497 20.7379 42.5344 21.9822C42.4384 22.5513 42.2018 23.3107 42.2062 23.8421C42.2076 24.2887 42.3326 24.8207 42.8992 24.9406C43.2642 25.0272 44.271 24.7469 44.5725 24.6338C45.0988 24.4478 45.5717 24.1958 46.0559 23.8365C46.6865 23.3477 47.4018 22.6265 47.4638 21.6919C47.5189 20.7083 46.728 20.0822 45.897 19.838C45.4284 19.7043 44.8085 19.7477 44.5164 19.4274ZM43.7116 22.2628C43.7982 21.6686 43.9532 20.9971 44.2697 20.7408C45.095 20.6948 46.1868 21.0992 46.1643 21.7725C46.1417 22.2166 45.5256 22.6827 45.1946 22.9617C44.848 23.2751 43.8079 23.7571 43.4499 23.7194L43.7116 22.2628ZM52.7953 22.4453C52.7217 21.6533 53.2962 20.2054 52.3226 20.2841C51.7624 20.3338 51.7091 21.1849 51.6138 21.8626C51.4889 22.7062 51.293 23.4216 51.1217 24.2483C50.9591 24.9913 50.7344 25.752 51.6125 25.6633C51.941 25.6375 52.4439 24.6406 52.6844 24.3039C53.1052 23.7448 53.0204 23.748 53.6999 23.023C53.9737 22.714 54.26 22.2855 54.635 22.2767C54.6502 22.8213 54.5554 23.1492 54.4236 23.7145C54.2786 24.2905 54.1524 24.9167 54.1268 25.5053C54.3561 25.9637 55.1877 25.8581 55.3855 25.4686C55.447 25.3424 55.4294 25.0509 55.452 24.8361C55.5555 23.9662 55.9968 22.637 56.0118 21.806C56.0161 21.4204 55.8716 20.9587 55.7371 20.8601C55.3043 20.5009 54.805 20.7742 54.4709 20.9684C54.0325 21.236 53.6582 21.5828 53.3543 21.949C53.2017 22.1381 53.0315 22.265 52.7953 22.4453ZM58.973 20.7176C58.5848 20.7371 58.3801 20.8483 58.0711 21.0331C57.58 21.3434 57.5065 21.4684 57.1868 21.8692C56.5802 22.5897 56.3047 23.9484 56.8456 24.8861C57.1541 25.2805 57.8061 25.7351 58.4085 25.8588C59.1277 26.0188 59.698 25.8736 60.1829 25.6229C61.0308 25.1329 61.6763 24.2716 61.6441 23.315C61.7569 21.7824 60.7361 20.5892 58.973 20.7176ZM57.8485 23.7245C57.8082 22.9601 58.4977 21.9105 59.1547 21.8588C60.0064 21.7915 60.6284 22.7618 60.3082 23.7417C60.1444 24.2675 59.5835 24.6671 59.2023 24.7356C58.3933 24.8557 57.8825 24.3193 57.8485 23.7245ZM63.6997 25.5461C63.5245 25.2623 63.5601 24.349 63.5763 23.7353C63.5976 23.3032 63.87 22.089 63.7412 21.8221C63.5923 21.5168 62.9648 21.4026 62.6948 21.6759C62.3312 22.0358 62.3321 23.9786 62.3466 24.4145C62.3863 25.0702 62.3965 25.8918 62.6271 26.3383C62.9343 26.9739 63.83 26.9474 64.3437 26.6515C64.6144 26.4869 65.2192 25.6696 65.287 25.713C65.3787 25.7588 65.6615 26.7417 65.8468 26.9301C66.2376 27.3453 66.8952 27.1731 67.4184 26.9023C68.6085 26.2551 69.789 24.2073 69.9043 22.1923C69.6762 21.7219 69.0048 21.7961 68.7705 22.0731C68.5501 22.4482 68.3776 23.516 68.1246 24.2013C67.8533 24.945 66.9955 25.9891 66.7248 25.9244C66.4195 25.8441 66.3828 24.1268 66.0724 23.6357C65.8852 23.3505 65.5661 23.4015 65.3149 23.4957C64.9029 23.742 64.3749 25.4361 63.6997 25.5461Z" fill="black"/>
<defs>
<clipPath id="clip0_2_416">
<rect width="28.3944" height="34.4457" fill="white" transform="matrix(-0.898735 -0.438492 -0.438492 0.898735 40.6211 36.4507)"/>
</clipPath>
</defs>
</svg>
